<?xml version="1.0" encoding="UTF-8"?>
<svg xmlns="http://www.w3.org/2000/svg" xmlns:xlink="http://www.w3.org/1999/xlink" width="900pt" height="900pt" viewBox="0 0 900 900" version="1.1">
<defs>
<linearGradient id="linear0" gradientUnits="userSpaceOnUse" x1="1013.5554" y1="811.9993" x2="872.2862" y2="1115.728" gradientTransform="matrix(0.45,0,0,0.45,0,0)">
<stop offset="0" style="stop-color:rgb(4.705882%,78.039216%,61.176471%);stop-opacity:1;"/>
<stop offset="0.5829" style="stop-color:rgb(16.862745%,65.882353%,98.823529%);stop-opacity:1;"/>
<stop offset="1" style="stop-color:rgb(47.843137%,21.176471%,69.411765%);stop-opacity:1;"/>
</linearGradient>
<linearGradient id="linear1" gradientUnits="userSpaceOnUse" x1="1182.3354" y1="835.6477" x2="1018.9652" y2="1186.8937" gradientTransform="matrix(0.45,0,0,0.45,0,0)">
<stop offset="0" style="stop-color:rgb(4.705882%,78.039216%,61.176471%);stop-opacity:1;"/>
<stop offset="0.3644" style="stop-color:rgb(14.901961%,67.843137%,92.941176%);stop-opacity:1;"/>
<stop offset="0.4294" style="stop-color:rgb(16.862745%,65.882353%,98.823529%);stop-opacity:1;"/>
<stop offset="1" style="stop-color:rgb(47.843137%,21.176471%,69.411765%);stop-opacity:1;"/>
</linearGradient>
</defs>
<g id="surface1">
<path style=" stroke:none;fill-rule:nonzero;fill:rgb(100%,100%,100%);fill-opacity:1;" d="M 304.609375 273.363281 L 649.292969 273.363281 L 649.292969 613.445312 L 304.609375 613.445312 Z M 304.609375 273.363281 "/>
<path style=" stroke:none;fill-rule:nonzero;fill:url(#linear0);" d="M 444.027344 378.085938 C 426.402344 373.90625 411.039062 390.324219 414.953125 409.167969 C 416.941406 418.757812 423.988281 426.289062 432.964844 428.417969 C 450.589844 432.597656 465.953125 416.179688 462.039062 397.335938 C 460.042969 387.746094 453 380.214844 444.027344 378.085938 Z M 438.816406 413.84375 C 433.085938 414.035156 428.40625 409.03125 428.585938 402.902344 C 428.75 397.34375 432.96875 392.835938 438.167969 392.660156 C 443.902344 392.46875 448.582031 397.472656 448.402344 403.601562 C 448.234375 409.152344 444.015625 413.667969 438.816406 413.84375 Z M 438.816406 413.84375 "/>
<path style=" stroke:none;fill-rule:nonzero;fill:url(#linear1);" d="M 494.082031 467.617188 C 484.480469 477.417969 475.996094 467.703125 475.996094 467.703125 L 458.671875 447.578125 C 454.792969 442.234375 448.164062 439.898438 443.613281 438.886719 C 440.472656 438.1875 437.230469 438.167969 434.078125 438.816406 C 414.167969 442.921875 413.996094 459.507812 413.996094 459.507812 L 414.480469 498.238281 C 414.539062 502.808594 415.773438 507.28125 418.117188 511.097656 C 425.492188 523.105469 439.433594 522.375 439.433594 522.375 C 456.445312 520.175781 461.136719 507.933594 462.398438 502.433594 C 462.695312 501.128906 462.84375 499.789062 462.839844 498.441406 L 462.789062 481.710938 C 462.34375 474.828125 465.84375 479.160156 465.84375 479.160156 L 469.507812 482.484375 C 478.597656 489.742188 488.351562 488.191406 493.96875 486.273438 C 496.195312 485.515625 498.285156 484.339844 500.113281 482.773438 C 503.261719 480.074219 503.507812 483.363281 503.425781 485.253906 C 503.371094 486.492188 503.375 487.738281 503.414062 488.972656 L 503.722656 497.714844 C 503.796875 499.933594 504.226562 502.128906 504.984375 504.195312 C 513.257812 526.628906 530.644531 522.972656 530.644531 522.972656 C 535.179688 522.320312 538.847656 520.914062 541.808594 519.117188 C 549.414062 514.492188 553.996094 505.742188 553.875 496.390625 L 552.707031 404.28125 C 552.632812 398.226562 550.898438 392.308594 547.65625 387.351562 C 540.085938 375.78125 529.300781 376.164062 521.445312 378.621094 C 516.097656 380.296875 511.28125 383.507812 507.46875 387.855469 L 488.015625 410.023438 C 487.6875 410.394531 487.371094 410.777344 487.089844 411.183594 C 485.464844 413.492188 483.683594 411.40625 483.257812 410.84375 C 483.097656 410.625 482.921875 410.417969 482.738281 410.214844 C 481.292969 408.667969 476.367188 404.390625 470.507812 410.355469 C 466.367188 414.566406 469.804688 420.277344 473.304688 424.238281 C 477.296875 428.753906 483.273438 430.65625 488.898438 429.078125 C 490.878906 428.527344 492.472656 427.71875 493.613281 427.007812 C 494.691406 426.34375 495.660156 425.492188 496.5 424.507812 L 519.15625 397.914062 C 520.792969 395.988281 522.796875 394.453125 525.042969 393.445312 C 539.09375 387.140625 538.8125 403.9375 538.8125 403.9375 L 538.8125 496.914062 C 538.8125 499.222656 538.160156 501.488281 536.894531 503.359375 C 534.179688 507.371094 530.316406 507.433594 528.714844 507.261719 C 528.167969 507.203125 527.621094 507.179688 527.070312 507.179688 C 517.964844 507.191406 517.652344 495.65625 517.652344 495.65625 L 517.652344 460.859375 C 517.652344 459.019531 517.210938 457.203125 516.339844 455.625 C 516.304688 455.558594 516.265625 455.496094 516.226562 455.429688 C 514.335938 452.1875 510.117188 451.640625 507.5 454.246094 Z M 448.953125 496.871094 C 448.953125 502.914062 444.324219 507.855469 438.671875 507.855469 C 433.023438 507.855469 428.394531 502.914062 428.394531 496.871094 L 428.394531 464.335938 C 428.394531 458.292969 433.023438 453.351562 438.671875 453.351562 C 444.324219 453.351562 448.953125 458.296875 448.953125 464.335938 Z M 448.953125 496.871094 "/>
</g>
</svg>
