<?xml version="1.0" encoding="utf-8"?>
<!-- Generator: Adobe Illustrator 24.1.1, SVG Export Plug-In . SVG Version: 6.00 Build 0)  -->
<svg version="1.1" id="Layer_1" xmlns="http://www.w3.org/2000/svg" xmlns:xlink="http://www.w3.org/1999/xlink" x="0px" y="0px"
	 viewBox="0 0 2000 2000" style="enable-background:new 0 0 2000 2000;" xml:space="preserve">
<style type="text/css">
	.st0{fill:#FFFFFF;}
	.st1{fill:url(#SVGID_1_);}
	.st2{fill:url(#SVGID_2_);}
</style>
<rect x="676.91" y="607.47" class="st0" width="765.96" height="755.74"/>
<g>
	<linearGradient id="SVGID_1_" gradientUnits="userSpaceOnUse" x1="1013.5554" y1="811.9993" x2="872.2862" y2="1115.728">
		<stop  offset="0" style="stop-color:#0CC79C"/>
		<stop  offset="0.5829" style="stop-color:#2BA8FC"/>
		<stop  offset="1" style="stop-color:#7A36B1"/>
	</linearGradient>
	<path class="st1" d="M986.73,840.19c-39.17-9.29-73.31,27.2-64.61,69.07c4.42,21.31,20.08,38.05,40.02,42.78
		c39.17,9.29,73.31-27.2,64.61-69.07C1022.32,861.66,1006.67,844.92,986.73,840.19z M975.15,919.65
		c-12.74,0.43-23.14-10.69-22.74-24.31c0.37-12.35,9.74-22.37,21.3-22.76c12.74-0.43,23.14,10.69,22.74,24.31
		C996.08,909.23,986.7,919.26,975.15,919.65z"/>
	<linearGradient id="SVGID_2_" gradientUnits="userSpaceOnUse" x1="1182.3354" y1="835.6477" x2="1018.9652" y2="1186.8937">
		<stop  offset="0" style="stop-color:#0CC79C"/>
		<stop  offset="0.3644" style="stop-color:#26ADED"/>
		<stop  offset="0.4294" style="stop-color:#2BA8FC"/>
		<stop  offset="1" style="stop-color:#7A36B1"/>
	</linearGradient>
	<path class="st2" d="M1097.96,1039.15c-21.34,21.78-40.19,0.19-40.19,0.19l-38.5-44.72c-8.62-11.88-23.35-17.07-33.46-19.32
		c-6.98-1.55-14.19-1.59-21.19-0.15c-44.25,9.12-44.63,45.98-44.63,45.98l1.08,86.07c0.13,10.15,2.87,20.09,8.08,28.57
		c16.39,26.69,47.37,25.06,47.37,25.06c37.8-4.88,48.23-32.09,51.03-44.31c0.66-2.9,0.99-5.88,0.98-8.87l-0.11-37.18
		c-0.99-15.3,6.79-5.67,6.79-5.67l8.14,7.39c20.2,16.13,41.88,12.68,54.36,8.42c4.95-1.69,9.59-4.3,13.65-7.78
		c7-6,7.55,1.31,7.36,5.51c-0.12,2.75-0.11,5.52-0.02,8.27l0.68,19.42c0.17,4.93,1.12,9.81,2.81,14.4
		c18.38,49.86,57.02,41.73,57.02,41.73c10.08-1.45,18.23-4.57,24.81-8.57c16.9-10.27,27.08-29.72,26.81-50.5l-2.59-204.69
		c-0.17-13.45-4.02-26.6-11.23-37.62c-16.82-25.71-40.79-24.86-58.24-19.4c-11.89,3.72-22.59,10.86-31.06,20.52l-43.23,49.26
		c-0.73,0.83-1.43,1.68-2.06,2.58c-3.61,5.13-7.57,0.5-8.51-0.75c-0.36-0.49-0.75-0.95-1.16-1.4c-3.21-3.44-14.16-12.94-27.18,0.31
		c-9.2,9.36-1.56,22.05,6.22,30.85c8.87,10.04,22.15,14.26,34.65,10.76c4.4-1.23,7.94-3.02,10.48-4.6c2.39-1.48,4.55-3.37,6.41-5.56
		l50.35-59.1c3.64-4.28,8.09-7.69,13.08-9.93c31.23-14.01,30.6,23.32,30.6,23.32l0,206.61c0,5.13-1.45,10.17-4.26,14.33
		c-6.03,8.91-14.62,9.05-18.18,8.67c-1.21-0.13-2.43-0.18-3.65-0.18c-20.24,0.02-20.93-25.61-20.93-25.61v-77.33
		c0-4.09-0.98-8.12-2.92-11.63c-0.08-0.15-0.16-0.29-0.25-0.43c-4.2-7.21-13.58-8.42-19.39-2.63L1097.96,1039.15L1097.96,1039.15z
		 M997.67,1104.16c0,13.43-10.28,24.41-22.84,24.41h0c-12.56,0-22.84-10.98-22.84-24.41v-72.3c0-13.43,10.28-24.41,22.84-24.41h0
		c12.56,0,22.84,10.99,22.84,24.41V1104.16z"/>
</g>
</svg>
